# xmcd
#
# Track frame offsets:
#	150
#	13018
#	23163
#	35968
#	49758
#	68200
#	89618
#	107083
#	121775
#	135513
#	153175
#	168710
#
# Disc length: 2508 seconds
#
# Revision: 2
# Processed by: cddbd v1.5.2PL0 Copyright (c) Steve Scherf et al.
# Submitted via: audiograbber 1.83.01
#
DISCID=9e09ca0c
DTITLE=Heino - Star Collection
DYEAR=1900
DGENRE=
TTITLE0=Karamba, Karacho, ein Whiskey  1969
TTITLE1=Die Sonne von Mexico  1968
TTITLE2=Spanish Eyes  1975
TTITLE3=Hey Capello  1970
TTITLE4=Tampico  1973
TTITLE5=Komm in meinen Wigwam  1975
TTITLE6=Die schwarze Barbara  1975
TTITLE7=In einer Bar in Mexico  1975
TTITLE8=Griechischer Wein  1975
TTITLE9=und sie hiess Lulalei  1974
TTITLE10=Beim alten Bill in Oklahoma  1979
TTITLE11=Mohikana Shalali  1971
EXTD=
EXTT0=
EXTT1=
EXTT2=
EXTT3=
EXTT4=
EXTT5=
EXTT6=
EXTT7=
EXTT8=
EXTT9=
EXTT10=
EXTT11=
PLAYORDER=
